<svg xmlns:xlink="http://www.w3.org/1999/xlink" xmlns="http://www.w3.org/2000/svg" viewBox="0 0 1343.02 1242.35" width="1343.02"  height="1242.35" >
  <title>Warhammer</title>
  <path d="M1212.13-.47c-2.82,1.27-5.59,2.67-8.47,3.8-26.61,10.45-52.87,22-80,30.92-24,7.93-48.62,13.67-72.16,23.11-6.12,2.45-13.35,2.33-20.1,3-11.91,1.09-23.83,2-35.76,2.7-8.31.51-16.63.81-25,1-13.31.26-26.62.49-39.94.44-6.12,0-12.24-.69-18.35-1.15-3.48-.27-6.94-1.05-10.41-1q-132.11.85-264.3,1.85c-12.67.09-25.33-.13-38-.14l-346.45-.33q-65-.06-129.95,0c-7.32,0-14.64-.11-22,.06-5.34.12-6.71,1.76-6.68,7.09q.42,82.71.83,165.43.08,15.7,0,31.41a21.49,21.49,0,0,1-.53,4c-1.38,7.29-4.73,8-11,4a29.92,29.92,0,0,0-14-4.3c-12.24-.59-24.53-.2-37.89-.2-.41-8.5-1.41-18.09-1.25-27.65.63-36.12,1.82-72.23,2.44-108.35.37-21.63.31-43.27,0-64.9-.17-10.45-2.21-20.9-2-31.33.18-12.26,1.74-24.51,3-36.74.13-1.22,2.26-3.14,3.53-3.19,5.93-.27,12-.77,17.8.21C81.7,3.78,107.91.85,134.17-.23c9.43-.38,18.92.78,28.39,1.09,7.64.24,15.28.43,22.92.35Q228.41.78,271.34.12c28.14-.43,56.26-1.19,84.4-1.38C367.37-1.34,379,.18,390.64.16c21.45,0,42.89-.92,64.35-1,20.13-.07,40.26.46,60.39.74,7.49.11,15,.27,22.48.35,31.81.35,63.63.42,95.43,1.11,18.14.39,36.24,2.07,54.37,2.65s36.3,1.06,54.42.62C768.21,4,794.3,2.29,820.43,1.44,848.55.53,876.69-.33,904.83-.4c13.1,0,26.18,2.21,39.3,2.78C952,2.72,960,2,967.92,1.48c13.42-.94,26.8-2.69,40.23-3.08,17.62-.51,35.28-.35,52.91.11C1080.69-1,1100.3.91,1119.92.9c22.29,0,44.58-1.41,66.87-2.31,5.81-.23,11.6-1,17.42-1.22a64.33,64.33,0,0,1,7.73.52Z" style="fill:#fff"/>
  <path d="M1181.33,1145V1107.2c8.79.42,18.23-3.53,25.44,5.06,4.85,5.78,5.65,16.18,1.55,23.06C1202.24,1145.53,1192.44,1146.07,1181.33,1145Z" style="fill:#fff"/>
  <path d="M378,1145V1107.2c8.82.53,18.75-3.84,25.68,5.47,5.25,7,5.56,15.09,1.3,22.62C399.13,1145.64,389.11,1146.09,378,1145Z" style="fill:#fff"/>
  <path d="M653,1160.12H628.36l12.54-35C645.19,1137.46,649,1148.56,653,1160.12Z" style="fill:#fff"/>
  <path d="M266,1126.8c3.8,11,7.59,21.91,11.52,33.27H252.83c4.08-11.39,8-22.4,12-33.41Z" style="fill:#fff"/>
  <path d="M1319.45,4c-21.43,5.45-42.6,12-64.15,16.92-19.78,4.45-39.21,9.38-58.51,16-45.88,15.74-92.43,29.64-139,43.33-18.1,5.33-37,8-55.45,12.13-3,.67-5.57,2.92-8.41,4.3a8.71,8.71,0,0,1-3.23.66c-3.13.19-6.37-.11-9.37.45-24.08,4.44-48.14,8.71-72.08,13.71-12.32,2.55-24.45,6.14-36.53,9.68-9,2.65-17.75,6.49-26.85,8.87-8,2.11-16.39,2.84-24.57,4.36-17.94,3.31-35.54,7.49-49.84,20-4,3.5-7.75,1.79-11.75-.94-2.32-1.59-5.79-2.88-8.42-2.43-8.67,1.49-17.25,3.61-25.76,5.9q-34,9.08-67.76,18.74c-3.18.91-6.73,2.84-8.64,5.39-3.26,4.35-7.1,4.94-11.75,4.17-2.63-.43-5.26-.87-7.84-1.53-7.53-1.92-14.6-1-21.93,1.76-10.25,3.83-20.8,7-31.39,9.83-5.66,1.5-11.69,1.65-17.39,2.4-1-2.53-2-4.17-2.33-5.94-1.23-6-2.15-12.15-3.36-18.15-1.26-6.22-2.35-6.93-8.54-5.39-14.53,3.63-29,7.62-43.53,11-25.76,6-51.6,11.6-77.41,17.37-9,2-10.63,5-7.38,13.78.74,2,1.67,4,2.46,6,1.16,2.94,2.46,5.86,3.34,8.86,1.14,3.87-.14,6.52-4.46,7.16-4.61.67-9.3,1.06-13.81,2.15Q381,240,358.33,246c-13.32,3.55-26.4,8.11-39.84,11.11-20.27,4.51-40.86,7.51-61.11,12.08-24.15,5.46-48.1,11.92-72.15,17.92-16.72,4.14-34,6.3-48.92,16.25-2.48,1.69-6.35,1.43-9.61,1.69-6.91.54-13.89.43-20.74,1.35-6.39.86-12.65,2.79-19,4.08-7.62,1.54-10.24-.41-11.39-8.2-1.39-9.37-3.37-10.35-12.6-7.94-18.82,4.91-37.72,9.5-56.63,14.08-5.46,1.33-6.07,2.12-4.75,7.41,5.48,21.94,11.13,43.85,16.26,65.85,6.19,26.57,11.77,53.28,18,79.84a26,26,0,0,0,6.29,10.89c3,3.27,4.89,6.4,4.4,11-.22,2,.66,4.14.9,6.23.19,1.38.59,3.09,0,4.15-2.59,4.67-1.78,9.37-.59,14.09,1,4.2,2.5,8.29,3.5,12.5C64.72,580.76,79,641.16,93.55,701.48c1.44,6,4.73,11.55,7.73,17,1.92,3.49,3.55,6.52,2.12,10.7-.59,1.77.19,4.07.41,6.07a31.25,31.25,0,0,1,.49,3.34c0,2.88-.75,5.89-.15,8.62,4.45,20.15,9.16,40.23,13.77,60.34,1.22,5.34,1.9,10.86,3.68,16,2.24,6.49,4,7,10.65,5.43q27.44-6.47,54.93-12.72c6.9-1.57,8.13-3.4,6.21-10.4-1.29-4.73.55-7.81,5.27-8.73,2.61-.51,5.31-.6,7.89-1.22,21.64-5.23,43.32-10.39,64.87-16,7.68-2,14.88-5.9,22.59-7.66,14.39-3.3,29-5.74,43.51-8.4,7.87-1.49,10.15-4.13,8.47-12-1.52-7.16-4.06-14.05-5.77-21.16-1.51-6.25-2.66-12.6-3.66-19-.68-4.21-.91-8.49-1.24-12.75-.3-3.92-1.26-8-.52-11.74,2.23-11.25,5.28-22.33,7.77-33.52,5.36-24.18,14.77-46.92,24.77-69.43A51.7,51.7,0,0,1,375,572.4c2.87-3.4,6.63-5.95,9.87-9q15.07-14.14,30-28.45c4-3.92,7.76-8.17,11.87-12,3.1-2.88,6.21-6.52,10-7.79,12.59-4.21,25.42-7.73,38.28-11.07,10.67-2.78,11.31-2.19,13.76,8.11l74.77,314.3q3.42,14.54,7.28,29c.83,3,2.62,4.4,6.39,3,5.59-2,8.24-.42,10.38,5.3a73,73,0,0,1,2.85,10.06c3.07,13.92,5.76,28,9.19,41.92,1,3.95,3.12,8.63,6.24,10.83,5.73,4.05,6.28,8.65,5.19,14.72-.74,4.34-1.67,9.07-.74,13.23,5.62,25,11.74,49.87,17.62,74.81,1.2,5.1,2.07,10.22,3.25,16.1H592.33c-44.35-.1-88.68-.31-133-.31q-168.51-.09-337,0c-6.45,0-13,.83-19.45.89-6.89.07-8.29-1.37-8.23-8.17,0-6.36.74-12.67.74-19,.1-39.49,0-79,.17-118.49,0-13.64.43-27.29.71-40.93.23-11.58,2.43-23.31-2.91-34.45-.43-.89.06-2.63.72-3.56,3-4.37,2.81-9.09,1.81-13.91-1.44-6.7-3.22-13.29-4.44-20-3-16.21-4.72-32.7-8.72-48.64C76.19,712.83,68.08,687.13,61,661.13c-5.55-20.33-11.59-40.46-14.35-61.6-1.91-14.71-8.18-28.85-12.5-43.24l-2.21.37c-.34,3.41-1,6.82-.94,10.23.32,17.81.86,35.62,1.26,53.43.15,6.33,0,12.67.15,19,.44,16.48,2.08,33,1.26,49.42-1.37,27.46-2.36,54.86-1.55,82.37.73,24.81.16,49.66.16,74.48,0,16.31.12,32.62.12,48.92,0,11-.8,22,.12,32.89.94,11.43,2.06,22.66.94,34.22-1.24,12.73-1.23,25.62-1.12,38.43.38,42.31,1.24,84.62,1.53,126.93.22,31.48-.16,63-.27,94.48v19c11,0,21.56-.06,32.17,0,35.95.2,72,.67,108,.54,14-.06,27.89-2.19,41.89-2.06,40,.36,79.89,1.86,119.89,2.06,49.65.26,99.3-.18,149-.64,17.47-.16,34.93-1.38,52.4-1.94,14.3-.46,28.64-1.33,42.92-.84,21.6.75,43.17,3.51,64.76,3.62,27,.14,53.88-2.12,80.88-2.27,33.64-.18,67.28.91,100.93,1.15,51.47.37,103,.47,154.47.71,18.82.08,37.65.22,56.48.32q115.93.65,231.94,1.24c7.77,0,9.49-2.28,7.37-9.9-1.3-4.79-3.86-9.51-4-14.32-.57-20.45-1.19-41-.57-61.39.86-28.11,3.24-56.17,4.13-84.28.56-18-.37-36-.69-54-.44-27.15-1.1-54.29-1.44-81.44-.26-22.63-.65-45.28-.26-67.91.32-19,2.53-37.91,2.38-56.85-.43-57.12-1.92-114.24-2.33-171.36-.15-20.61,2.08-41.23,2.38-61.86.44-29.5.17-59,.08-88.5,0-7.31.72-14.91-1-21.86-5-20.1-3.19-40.1-1.19-60.1,2.65-26.12,3.24-52.31-.29-78.25-3.77-27.44-3.77-54.73-1.77-82.22.7-9.71-.09-19.57-.84-29.31-.36-4.55-3.87-5.5-6.87-2-2.78,3.26-4.8,7.16-7.11,10.8-6.56,10.39-12.94,20.89-19.69,31.15-6.15,9.32-12.69,18.36-19,27.57a44,44,0,0,0-7.63,25.88q.33,74.24.39,148.48l.18,314q.08,77,.16,154v3.5q.71,53.48,1.27,106.93c.06,6-1.94,7.31-8.66,7-9.15-.42-18.3-.86-27.45-.94-13.16-.12-26.33.11-39.49.11h-384c-11.26,0-12.59-1-16-12a31.69,31.69,0,0,1-1-3.86c-1.8-10.48-3.09-21.1-5.42-31.48C719.16,946,707.07,894.2,695.42,842.2c-2.26-10.07-2.84-9.39,7.43-12.89,3.13-1.08,4.45-2.54,4-5.69-.28-2-.44-4-.91-5.92-3.83-15.84-7.8-31.65-11.58-47.5q-31.75-133.58-63.65-267.08c-2.24-9.4-5-18.64-7.34-28-.37-1.49.46-3.28.74-4.92l4.44,1.43c3.4,1.16,6.72,2.91,10.2,3.35,4.08.51,8.31-.33,12.46-.19a167.37,167.37,0,0,1,18.72,1.29,88.89,88.89,0,0,1,15.91,4A79.73,79.73,0,0,1,698.09,486c3.86,2.15,7.23,5.57,11.31,6.87,18.82,6,37.81,11.44,56.73,17.12,5.58,1.68,11,4,16.69,5.11a64.28,64.28,0,0,1,26.83,12.62c6.33,4.85,13.58,7.32,21.48,8.76,6.11,1.11,12,3.57,17.87,5.89,9.39,3.75,18.59,7.95,27.93,11.83,6.14,2.55,12.35,4.93,18.56,7.28,7.1,2.68,14.21,5.32,21.36,7.84,6.56,2.32,13.93,3.26,19.56,6.94,9,5.84,18.59,9.24,28.46,12.84,16.43,6,32.31,13.2,48.43,19.89,9.76,4.06,12.38,3.42,17.9-5.8,6.32-10.56,12.09-21.46,18.32-32.07,3.09-5.26,5.28-10.29,1.62-16.21-.91-1.48-1-3.46-1.63-5.77,6.07.61,10.8-1.51,14.07-6.24,7.73-11.24,15.8-22.29,22.88-33.93,8.46-13.91,4.17-21.62-12.13-21.62a180.11,180.11,0,0,1-44-5.06c-16.79-4.12-33.66-8.65-51.14-3.12-1,.32-3.23-1.25-4-2.49a27.08,27.08,0,0,0-17.43-12.46c-9.83-2.35-19.83-4.23-29.83-6-23.25-4.14-46.57-7.95-69.8-12.22-9.91-1.82-19.15-6.38-29.67-6.15-7.86.17-15.82-1.08-23.64-2.34-5.56-.91-10.66-1.41-15.92,1.48s-8.06,1.32-12.26-2.68c-4.86-4.62-10.13-9.45-16.13-12-7.54-3.17-16.07-4-24.07-6.17a252.33,252.33,0,0,1-24.63-7.8c-4.58-1.78-4.37-4.92.19-6.78a20.27,20.27,0,0,1,9.14-1.48c7.44.64,14.82,1.92,22.24,2.92,7.89,1.09,15.82,1.77,23.66,3.09,10.31,1.74,20.51,4.19,30.83,5.83,8.65,1.39,17.51,1.59,26.12,3.15,12.64,2.35,25.16,5.65,38,2,4.43-1.26,7.91-.14,11.81,1.86a46.21,46.21,0,0,0,13.4,4.67c12.61,2.14,25.3,3.87,38,5.39,6.74.8,13.69,1.85,20.31,1,10.7-1.39,20.83-.06,31,2.94,9.65,2.87,19.59,4.62,29.59,3,9.53-1.53,18.64-.15,27.53,2.85,14.23,4.86,28.52,9,43.74,9.23a64.34,64.34,0,0,1,14.38,1.45c14.51,3.56,26-1.29,35.1-12.29a119.84,119.84,0,0,0,25.66-56.1c1.28-7.27,3.57-13.77,8.75-19.16a111.34,111.34,0,0,0,8.25-9.38,29.15,29.15,0,0,0,4.36-7.72c1.32-3.69-.38-6.21-4.3-6.79a19.47,19.47,0,0,0-6-.06c-10.64,1.89-21.29,3.69-31.86,5.89-9.89,2.06-19.52,3.19-29.58.19-4.7-1.41-10.24-.88-15.24-.25-5.58.71-11,2.86-16.53,3.78-3.51.57-7.73,1.2-10.73-.19-12.29-5.72-24.91-4.85-37.72-3.42-12.32,1.38-24.55,1.26-36.77-1.38-8.61-1.86-17.24-2.91-26.24-1.22-5.77,1.09-11.82.46-17.82.54-7.44.09-14.88-.09-22.31.22-8.59.36-17.3,2.39-25.72,1.45a177.28,177.28,0,0,0-41.82.21c-14.85,1.85-29.71,3.69-44.8,1.59-5.12-.71-10.52.56-15.8.92-2.79.19-5.49.31-8.38.56s-5.85.26-8.6,1.25-4.38.54-6.69-1.2a22.71,22.71,0,0,0-8.69-3.6c-3.21-.71-6.63-.42-9.93-.78-14-1.56-28-4.06-42.26-2.41a26,26,0,0,1-7.91-.79c-3.52-.7-4.36-3.34-1.52-5.14,3.62-2.29,8-4.49,12.1-4.72,9.78-.57,19.64.41,29.44.11,18.14-.54,36.25-1.93,54.39-2.28,39.61-.77,79.2-1.33,118.3-8.84,4.21-.81,7.47-1.9,9.42-6.21s4.48-4.64,7.31-.95c2.61,3.36,5.61,4.06,9.61,3.79,15.28-1,30.57-2.55,45.85-2.55,36.9.05,73.47-3.69,110.07-7.75,26.11-2.89,52.2-6.71,78.64-4.29,3.38.31,7.85-.27,10.38-2.27,8.17-6.43,15.41-13.71,15.56-25.43.14-10.05,4.57-17.36,14.67-20.87,9.47-3.26,15.52-10.44,19-19.44a153.36,153.36,0,0,1,20.6-36.92,28.44,28.44,0,0,0,4-6.87c1.44-3.89,2.93-7.89,3.33-11.89.53-5.56-2.38-7.93-8-7.36a63.47,63.47,0,0,0-8.88,1.35c-12.59,3.09-25,6.84-37.75,9.36-19.7,3.94-40.12,4.11-59,11.94a5.36,5.36,0,0,1-1.49.21c-24.53,2.3-49.07,4.55-73.6,6.92-32.21,3.11-64.07,7.88-94.49,19.78a21.6,21.6,0,0,1-11.65.8,49.28,49.28,0,0,0-21.75.11c-17.49,4.07-34.94,8.43-52.56,11.89-15,3-30.11,5.23-44,12.33-2.24,1.16-5.47.59-8.24.59-5.46,0-11.07-.95-16.35,0-30.3,5.44-60.46,11.66-90.79,16.92-17.15,3-34.54,4.62-51.82,6.86l-.54-2.43c2.74-1,5.42-2.14,8.21-2.89,25.07-6.71,50.08-13.65,75.25-19.95,35.81-9,71.78-17.29,107.57-26.17q55.23-13.83,110.23-27.7l127.57-33c16.56-4.29,33-9.51,49.73-12.63,16.21-3,32.39-5.39,48-11.31C1219,129,1233.38,124.2,1249,124.9c5.1.23,10.6-1.43,15.39-3.43a173.07,173.07,0,0,0,21.15-11,22.26,22.26,0,0,0,7.79-7.49,238.23,238.23,0,0,0,12-23.5c9.91-22.51,17.67-46,32.91-65.88a25.43,25.43,0,0,0,3.48-6.6c.7-1.91.77-4,1.29-7C1334.45,1.42,1326.8,2.13,1319.45,4ZM210.76,1115.34c-1.16,3.87-2.27,7.77-3.43,11.64-.3,1-.59,2-.9,3-7.64,24.44-15.27,48.89-23.07,73.28a5,5,0,0,1-3.58,2.84c-.66,0-1.33.06-2,.09-4.15.19-8.37,0-12.89,0q-2.91-9.71-5.81-19.39c-4.22-14.08-8.47-28.25-12.87-43l-1.17-3.91c-.38,1-.71,1.87-1,2.64-.56,1.46-1,2.57-1.33,3.62l-.15.48c-5.7,18.61-11.45,37.21-16.93,55.88-.9,3.06-2.27,3.94-5.2,3.74a30.6,30.6,0,0,0-3.18,0c-2.77.14-5.64.46-7.94,0a6.2,6.2,0,0,1-2.42-1c-2.88-2.06-2.89-8.1-4.21-12.38-9-29.22-18-58.47-27.2-87.65A91.07,91.07,0,0,0,69.7,1092c-.86-1.7-2.31-4-3.86-4.3a9.33,9.33,0,0,1-3.09-1.22c-3.36-2.19-2.29-6.15-2.14-10.07h46.75v8.47h0c-.38.25-.63.59-.93.59-6.35.94-8.76,2.22-8.59,6.37a23.92,23.92,0,0,0,1,5.21c4.26,15.56,8.83,31,13.35,46.53.39,1.36.79,2.71,1.19,4.07,1.16,3.92,2.35,7.87,3.58,12s2.56,8.49,3.93,13.08c1.16-2.92,1.92-4.58,2.47-6.31.44-1.4.89-2.8,1.34-4.19,2.89-9.11,5.81-18.22,8.64-27.35,1.21-3.93,2.41-7.85,3.58-11.79a15.89,15.89,0,0,0,.53-4.28,15.48,15.48,0,0,0-.63-4.27c-1.94-6.53-4.53-12.86-6.81-19.29-1.18-3.34-2.73-6.28-5.45-8l-.15-.1c-.19-.12-.39-.23-.59-.33l-.21-.12a11.61,11.61,0,0,0-3.89-1.11h0v-9H166.1V1085h0c-7.68,1.71-10.55,2.46-10.65,6-.06,1.89.65,4.56,1.82,8.54,7,23.92,14.4,47.71,21.64,71.56h1.47c2.73-8.54,5.53-17.06,8.16-25.63,4.68-15.26,9.48-30.5,13.81-45.87a51.52,51.52,0,0,0,1.22-5c1-6.06-1.31-7.22-10-9a14.29,14.29,0,0,1-1.65-.62v-8.56h37.27c.07.26.13.5.2.74.75,2.81.9,4.44.34,5.8,0,0,0,0,0,0s-.08.16-.12.24a9.8,9.8,0,0,1-2.39,2.75c-.61.55-1.31,1.14-2.13,1.85a34.59,34.59,0,0,0-9.43,13C213.76,1105.66,212.21,1110.48,210.76,1115.34Zm111.17,90.54h0v0H278.62v-9.23l0,0h0l.15-.11a1.71,1.71,0,0,1,.4-.28.5.5,0,0,1,.2-.08c4.09-.71,6.41-1.14,7.5-2.15,1.37-1.3.72-3.56-.86-8.55-4.15-13.08-4.15-13.08-18.06-13.08-5.34,0-10.69-.21-16,.13a5.88,5.88,0,0,0-3.42,1.74,5.81,5.81,0,0,0-.79,1A100.47,100.47,0,0,0,243.4,1188c-1.73,6-1.22,6.66,5.2,7.71.82.13,1.61.36,2.61.59v9.53h0v0h-32.4v-9.58h0v0a9.45,9.45,0,0,0,4.09-.94c3.62-1.83,5.09-6,6.57-10,10.36-28.26,20.76-56.5,30.82-84.85a10.06,10.06,0,0,1,2.34-4.1c1.24-1.17,2.9-1.57,5.4-1.28,3.61.45,7.31.12,11,.12,5.86,16.85,11.57,33.5,17.45,50.09,4.84,13.63,9.89,27.18,14.87,40.76,1.63,4.45,3.38,8.76,8.88,9.86.71.14,1.57,1.6,1.65,2.51C322.08,1200.86,321.93,1203.34,321.93,1205.88Zm120.48.06c-9.52,0-18.94.13-28.35-.16-1.26,0-2.79-2-3.62-3.48q-11.93-20.44-23.73-41c-1.79-3.13-3.69-6-8.39-5.58v27.71c.4,11,.4,11,11.33,12.3.64.08,1.28.28,2.35.52.09,1.58.26,3.29.26,4.77v4.71H341.52v-9.4a10.91,10.91,0,0,1,2-.59c12.18-.85,11.35-1,11.59-13.51.38-19.42-.09-39-.21-58.42v-3c0-13.49,0-13.49-13.39-16v-9.17c6.71,0,13.15.08,19.59,0,13.15-.17,26.29-.46,39.44-.62a42,42,0,0,1,8,.5c13.42,2.43,21.3,10.24,22.84,22.24,1.88,14.71-3.48,25.36-15.88,31.36-2.37,1.15-4.86,2.06-8.13,3.44,8.43,13,16.47,25.9,25.16,38.36,2,2.81,6.14,4.06,9.88,6.4Zm81.6-.14v-9.43a9.54,9.54,0,0,1,1.8-.61c11-1.32,11.16-1.31,11.46-12.18.25-9.29.05-18.58.05-28.14h-37c0,11.94-.14,23.83.19,35.72,0,1.36,2.57,3.23,4.3,3.82,2.45.8,5.22.68,8.16,1v9.71H463v-9.4a9,9,0,0,1,1.95-.59c11.35-.82,10.85-.72,11-12.82.27-23.31.24-46.62.38-69.93,0-4.12-1.6-6.65-6-7-2.48-.16-4.88-.63-7.48-1v-9.42h49.73v9.14c-.17.13-.42.5-.68.5-11.79.34-12.43,5.54-12.43,14.34v22.3h37.72v-20c0-.83-.22-1.66-.22-2.49-.51-12.44-.51-12.44-13-14.44v-9.43H573.6v9.23a3.13,3.13,0,0,1-.87.5c-11.39,2.07-12.26,2.9-12.26,14.43q-.09,32,.17,64c.09,10.93.24,10.93,11,12.09.82.08,1.62.31,2.62.51l.06,9.59Zm620.67-110.48h9.76q24.54-.19,49-.31a50.51,50.51,0,0,1,7.48.35c13.58,2,22,9.94,23.58,22.06,2,15.27-3.61,26.25-16.38,32-2.25,1-4.54,1.92-7.39,3.13,8.08,12.61,15.69,25.12,24,37.12,2.25,3.25,6.58,5.07,10.68,8.07l0,8.29c-9.45,0-18.73.14-28-.16-1.28,0-2.85-2-3.68-3.4-8-13.65-15.84-27.37-23.7-41.09-1.8-3.14-3.73-6-8.55-5.68v26.19c0,.49.09,1,.09,1.49.43,11.19.43,11.18,11.29,12.39.66.08,1.26.25,2.26.43v9.53h-50.36v-9.43a16.41,16.41,0,0,1,2.3-.56c11.27-1.18,11.38-1.17,11.38-12.74,0-23.34-.08-46.67,0-70,0-4.27-1.71-6.6-6-7-2.48-.23-5-.6-7.74-1Zm-112,.2h87.67V1127c-4.34,0-8.77.1-13.18-.1a3.82,3.82,0,0,1-2.32-2,18.92,18.92,0,0,1-.94-3.86c-4.28-16.66-1.2-12.51-17.55-13.66a68.06,68.06,0,0,0-13,.44c-1.34.17-3.51,2.14-3.51,3.33-.29,9.76-.17,19.57-.17,29.76l36.36,0v14.16h-36.16c0,11.77-.15,23.17.2,34.56,0,1.3,2.82,3.51,4.42,3.6a199.27,199.27,0,0,0,22.4,0c1.73-.1,3.94-2.37,4.73-4.17,2.48-5.56,4.39-11.42,6.66-17.56l16,2.39c-1.58,10.84-3.09,21.15-4.63,31.76h-86.87v-9.41c1-.19,2.12-.47,3.23-.58,9.66-1,10.15-1,10.25-10.74.19-19.15-.11-38.3-.17-57.45,0-4.15,0-8.32.23-12.47.34-6.77-.83-8.32-7.41-9.2-2-.27-4-.46-6.24-.72Zm-158.31,100.9c13.32-2.66,10.89-3.86,11.59-14.21,1.42-22.26,2.47-44.55,3.6-66.83.41-8.17.33-8.17-7.59-9.31-1.47-.21-2.91-.56-4.71-.92-.09-1.77-.24-3.53-.24-5s.14-2.93.25-4.93c12.66,0,25.11-.11,37.54.18,1.13.07,2.7,2.47,3.21,4.07,6.94,21.7,13.72,43.45,20.58,65.17.95,3,2.16,5.92,3.67,10,1-2.49,1.72-4.05,2.26-5.66,7.8-23.18,15.63-46.34,23.27-69.57,1.06-3.22,2.42-4.39,5.92-4.31,11.45.26,22.9.1,34.54.1v9.71c-14,2.32-13.05-1.06-12.45,14.94.85,22.46,2.5,44.88,3.85,67.31.21,3.53.35,7,5.07,7.92,8.24,1.59,8.29,1.84,6.69,10.78H964.3v-9.58c1.13-.22,2.23-.5,3.35-.63,8-1,8.88-1.7,8.61-9.58-.64-19-1.52-37.89-2.34-56.89a4.65,4.65,0,0,0-1.55-3.32c-3.28,9.87-6.62,19.71-9.82,29.6-5,15.51-10,31-14.77,46.62-1,3.14-2.45,4-5.61,4-13.64,0-13.64.06-17.64-12.82q-9.49-30.48-19.06-60.94a15.76,15.76,0,0,0-3.11-5.94c-.58,10.46-1.24,20.92-1.72,31.39-.47,9.45-.81,19-1,28.45-.17,7.62.31,8,7.83,9.24,1,.16,1.92.45,3.2.76.1,1.69.25,3.45.26,4.92s-.12,2.95-.2,4.65H874.34Zm-157.84.4c.27-.24.47-.59.74-.65,10.54-2.53,10.53-2.67,11.07-14q1.61-33.42,3.38-66.82c.43-8.24.56-8.22-7.44-9.35-1.48-.21-2.94-.59-4.68-.94v-9.6H758.7l24.77,78.08,1.76.15,26.28-78.3,38.86.07v9.42c-12.62,2.23-12.91,2.24-12.33,14.49,1.07,22.61,2.61,45.2,3.74,67.8.28,5.49,2.39,8.09,8.1,8.31,5.1.2,5.23,1,3.94,10.35H806.58v-9.36c.57-.26.86-.53,1.17-.53,11.27-.41,11-2.5,10.68-12.69-.58-18-1.41-35.89-2.17-53.89a5,5,0,0,0-1.69-3.45c-3.36,10.17-6.79,20.32-10.07,30.52-4.83,15-9.64,30.09-14.25,45.19-1.06,3.47-2.74,4.54-6.36,4.54-13.1-.16-13.11,0-17-12.42q-9.67-30.95-19.39-61.87a14,14,0,0,0-3.07-5.66q-1.14,23.05-2.14,46.13c-.21,4.82-.33,9.65-.33,14.47,0,7,.49,7.57,7.31,8.65,1.14.18,2.26.5,3.68.82v9.54H716.5Zm-74.44-101.69c4.12.36,8.29.08,12.42.08,6.34,18.16,12.5,36,18.83,53.87,4.45,12.54,9.14,25,13.69,37.49,1.79,4.94,4.32,9.06,10.26,9.63v9.49h-43.4v-8.89c.21-.18.43-.57.69-.57,9.43-1.37,10.25-1,6.68-11.84-1.29-3.94-2.7-7.85-4.16-12.06-10,0-20-.11-30,.13-1.3,0-3.15,1.6-3.71,2.91a107.32,107.32,0,0,0-4.31,12.22c-1.82,6.11-1.09,7.11,5.32,8.11.65.1,1.28.31,2.37.59l0,9.51H594.33v-9.6c6.75.12,8.64-5.33,10.54-10.5q15.89-43,31.38-86.25C637.37,1096.33,638.51,1094.81,642.06,1095.13Z" style="fill:#fff"/>
</svg>